<svg viewBox="0 0 540 67" xmlns="http://www.w3.org/2000/svg"><defs><linearGradient gradientTransform="translate(0 -34)" gradientUnits="userSpaceOnUse" y2="99.2" x2="11.4" y1="69.5" x1="28.5" id="a"><stop offset="0"></stop><stop offset=".9"></stop></linearGradient></defs><path fill="url(#a)" d="M19.6 30.5a1.9 1.9 0 0 0-3.2.4L.2 63.3A2 2 0 0 0 2 66.1h22.6a1.9 1.9 0 0 0 1.8-1c4.8-10 1.9-25.4-6.7-34.6z"></path><path d="M31.5 1A42.8 42.8 0 0 0 29 43.3L40 65a2 2 0 0 0 1.7 1.1h22.6a2 2 0 0 0 1.7-2.8L34.8 1a1.8 1.8 0 0 0-3.3 0z"></path><path d="m509 35.6 16.4 30.5H540V11.7h-11.6v35.1L524 36.6l-13.2-24.9h-18.3v54.4h11.6V24.6zM406 11.7h12.7v54.4h-12.6zM391.4 50c0-9.5-5-14-19.3-17-7.9-1.8-9.8-3.5-9.8-6 0-3.2 2.9-4.5 8-4.5 6.3 0 12.6 1.9 18.4 4.5V14.6a41.6 41.6 0 0 0-18-3.7c-14 0-21.3 6.1-21.3 16.1 0 8 3.7 14.4 18.3 17.3 8.7 1.8 10.5 3.2 10.5 6s-1.8 4.7-8 4.7a45 45 0 0 1-21.1-5.7v13.1a43.3 43.3 0 0 0 21 4.6c15.2 0 21.3-6.8 21.3-17M338.6 50c0-9.5-5-14-19.3-17-7.8-1.8-9.7-3.5-9.7-6 0-3.2 2.8-4.5 8-4.5 6.3 0 12.5 1.9 18.4 4.5V14.6a41.6 41.6 0 0 0-18-3.7c-14.1 0-21.4 6.1-21.4 16.1 0 8 3.7 14.4 18.3 17.3 8.7 1.8 10.5 3.2 10.5 6s-1.8 4.7-8 4.7a45 45 0 0 1-21.1-5.7v13.1a43.4 43.4 0 0 0 21 4.6c15.2 0 21.3-6.8 21.3-17M211 54.4V11.7h-12.8v54.4h26l4.1-11.7zM173.5 66.1V23.5h15.1V11.7h-42v11.8h14.2V66zM128.2 11.7h-16.8l-19 54.4H107l2.7-9.1a36 36 0 0 0 20.3 0l2.7 9.1h14.5zm-8.4 35.5a24.8 24.8 0 0 1-7-1l7-23.8 7 23.8a24.8 24.8 0 0 1-7 1zM269.1 11.7h-16.7l-19 54.4H248l2.7-9.1a36 36 0 0 0 20.3 0l2.7 9.1h14.5zm-8.3 35.5a24.7 24.7 0 0 1-7-1l7-23.8 7 23.8a24.7 24.7 0 0 1-7 1zM464.4 11.7h-16.7l-19 54.4h14.5l2.7-9.1a36 36 0 0 0 20.3 0l2.7 9.1h14.5zm-8.3 35.5a24.8 24.8 0 0 1-7-1l7-23.8 7 23.8a24.8 24.8 0 0 1-7 1z" class="cls-3"></path></svg>